<svg width="220" height="179" viewBox="0 0 220 179" fill="none" xmlns="http://www.w3.org/2000/svg">
<path d="M7.82222 35.5556V104H16.1333V35.5556H7.82222ZM12.4178 43.3778H26.4C30.8326 43.3778 34.4178 44.4533 37.1556 46.6044C39.9585 48.6904 41.36 51.8519 41.36 56.0889C41.36 60.2607 39.9585 63.4222 37.1556 65.5733C34.4178 67.7244 30.8326 68.8 26.4 68.8H12.4178V76.6222H26.4C30.8326 76.6222 34.7763 75.8074 38.2311 74.1778C41.7511 72.483 44.5215 70.1037 46.5422 67.04C48.6281 63.9111 49.6711 60.2607 49.6711 56.0889C49.6711 51.8519 48.6281 48.2015 46.5422 45.1378C44.5215 42.0741 41.7511 39.7274 38.2311 38.0978C34.7763 36.403 30.8326 35.5556 26.4 35.5556H12.4178V43.3778Z" fill="black"/>
<path d="M73.0075 35.5556V104H81.3186V35.5556H73.0075Z" fill="black"/>
<path d="M37.1554 110.428C37.1554 105.279 38.2636 100.683 40.4799 96.6416C42.7614 92.6001 45.8577 89.4061 49.7688 87.0594C53.6799 84.7127 58.1125 83.5394 63.0666 83.5394C68.0858 83.5394 72.5184 84.7127 76.3643 87.0594C80.2754 89.4061 83.3392 92.6001 85.5554 96.6416C87.8369 100.683 88.9777 105.279 88.9777 110.428C88.9777 115.578 87.8369 120.173 85.5554 124.215C83.3392 128.256 80.2754 131.451 76.3643 133.797C72.5184 136.144 68.0858 137.317 63.0666 137.317C58.1125 137.317 53.6799 136.144 49.7688 133.797C45.8577 131.451 42.7614 128.256 40.4799 124.215C38.2636 120.173 37.1554 115.578 37.1554 110.428ZM28.3554 110.428C28.3554 115.382 29.2029 120.011 30.8977 124.313C32.6577 128.615 35.1021 132.363 38.231 135.557C41.3599 138.686 45.0429 141.163 49.2799 142.988C53.5169 144.748 58.1125 145.628 63.0666 145.628C68.0858 145.628 72.6814 144.748 76.8532 142.988C81.0903 141.163 84.7732 138.686 87.9021 135.557C91.031 132.363 93.4429 128.615 95.1377 124.313C96.8977 120.011 97.7777 115.382 97.7777 110.428C97.7777 105.409 96.8977 100.781 95.1377 96.5438C93.4429 92.2416 91.031 88.5261 87.9021 85.3972C84.7732 82.2031 81.0903 79.7261 76.8532 77.9661C72.6814 76.1409 68.0858 75.2283 63.0666 75.2283C58.1125 75.2283 53.5169 76.1409 49.2799 77.9661C45.0429 79.7261 41.3599 82.2031 38.231 85.3972C35.1021 88.5261 32.6577 92.2416 30.8977 96.5438C29.2029 100.781 28.3554 105.409 28.3554 110.428Z" fill="black"/>
<path d="M143.081 110.428C143.081 105.279 144.19 100.683 146.406 96.6416C148.687 92.6001 151.784 89.4061 155.695 87.0594C159.606 84.7127 164.039 83.5394 168.993 83.5394C174.012 83.5394 178.444 84.7127 182.29 87.0594C186.201 89.4061 189.265 92.6001 191.481 96.6416C193.763 100.683 194.904 105.279 194.904 110.428C194.904 115.578 193.763 120.173 191.481 124.215C189.265 128.256 186.201 131.451 182.29 133.797C178.444 136.144 174.012 137.317 168.993 137.317C164.039 137.317 159.606 136.144 155.695 133.797C151.784 131.451 148.687 128.256 146.406 124.215C144.19 120.173 143.081 115.578 143.081 110.428ZM134.281 110.428C134.281 115.382 135.129 120.011 136.824 124.313C138.584 128.615 141.028 132.363 144.157 135.557C147.286 138.686 150.969 141.163 155.206 142.988C159.443 144.748 164.039 145.628 168.993 145.628C174.012 145.628 178.607 144.748 182.779 142.988C187.016 141.163 190.699 138.686 193.828 135.557C196.957 132.363 199.369 128.615 201.064 124.313C202.824 120.011 203.704 115.382 203.704 110.428C203.704 105.409 202.824 100.781 201.064 96.5438C199.369 92.2416 196.957 88.5261 193.828 85.3972C190.699 82.2031 187.016 79.7261 182.779 77.9661C178.607 76.1409 174.012 75.2283 168.993 75.2283C164.039 75.2283 159.443 76.1409 155.206 77.9661C150.969 79.7261 147.286 82.2031 144.157 85.3972C141.028 88.5261 138.584 92.2416 136.824 96.5438C135.129 100.781 134.281 105.409 134.281 110.428Z" fill="black"/>
<path d="M7.82222 35.5556V104H16.1333V35.5556H7.82222ZM12.4178 43.3778H26.4C30.8326 43.3778 34.4178 44.4533 37.1556 46.6044C39.9585 48.6904 41.36 51.8519 41.36 56.0889C41.36 60.2607 39.9585 63.4222 37.1556 65.5733C34.4178 67.7244 30.8326 68.8 26.4 68.8H12.4178V76.6222H26.4C30.8326 76.6222 34.7763 75.8074 38.2311 74.1778C41.7511 72.483 44.5215 70.1037 46.5422 67.04C48.6281 63.9111 49.6711 60.2607 49.6711 56.0889C49.6711 51.8519 48.6281 48.2015 46.5422 45.1378C44.5215 42.0741 41.7511 39.7274 38.2311 38.0978C34.7763 36.403 30.8326 35.5556 26.4 35.5556H12.4178V43.3778Z" fill="black"/>
<path d="M73.0075 35.5556V104H81.3186V35.5556H73.0075Z" fill="black"/>
<path d="M113.748 35.5556V104H122.059V35.5556H113.748ZM118.344 43.3778H132.326C136.758 43.3778 140.344 44.4533 143.081 46.6044C145.884 48.6904 147.286 51.8519 147.286 56.0889C147.286 60.2607 145.884 63.4222 143.081 65.5733C140.344 67.7244 136.758 68.8 132.326 68.8H118.344V76.6222H132.326C136.758 76.6222 140.702 75.8074 144.157 74.1778C147.677 72.483 150.447 70.1037 152.468 67.04C154.554 63.9111 155.597 60.2607 155.597 56.0889C155.597 51.8519 154.554 48.2015 152.468 45.1378C150.447 42.0741 147.677 39.7274 144.157 38.0978C140.702 36.403 136.758 35.5556 132.326 35.5556H118.344V43.3778Z" fill="black"/>
<path d="M171.013 98.2895V89.9784H163.191V98.2895H127.404V104.743H206.996V98.2895H171.013Z" fill="black"/>
<path d="M7.82222 35.5556V104H16.1333V35.5556H7.82222ZM12.4178 43.3778H26.4C30.8326 43.3778 34.4178 44.4533 37.1556 46.6044C39.9585 48.6904 41.36 51.8519 41.36 56.0889C41.36 60.2607 39.9585 63.4222 37.1556 65.5733C34.4178 67.7244 30.8326 68.8 26.4 68.8H12.4178V76.6222H26.4C30.8326 76.6222 34.7763 75.8074 38.2311 74.1778C41.7511 72.483 44.5215 70.1037 46.5422 67.04C48.6281 63.9111 49.6711 60.2607 49.6711 56.0889C49.6711 51.8519 48.6281 48.2015 46.5422 45.1378C44.5215 42.0741 41.7511 39.7274 38.2311 38.0978C34.7763 36.403 30.8326 35.5556 26.4 35.5556H12.4178V43.3778Z" fill="black"/>
<path d="M73.0075 35.5556V104H81.3186V35.5556H73.0075Z" fill="black"/>
<path d="M37.1554 110.428C37.1554 105.279 38.2636 100.683 40.4799 96.6416C42.7614 92.6001 45.8577 89.4061 49.7688 87.0594C53.6799 84.7127 58.1125 83.5394 63.0666 83.5394C68.0858 83.5394 72.5184 84.7127 76.3643 87.0594C80.2754 89.4061 83.3392 92.6001 85.5554 96.6416C87.8369 100.683 88.9777 105.279 88.9777 110.428C88.9777 115.578 87.8369 120.173 85.5554 124.215C83.3392 128.256 80.2754 131.451 76.3643 133.797C72.5184 136.144 68.0858 137.317 63.0666 137.317C58.1125 137.317 53.6799 136.144 49.7688 133.797C45.8577 131.451 42.7614 128.256 40.4799 124.215C38.2636 120.173 37.1554 115.578 37.1554 110.428ZM28.3554 110.428C28.3554 115.382 29.2029 120.011 30.8977 124.313C32.6577 128.615 35.1021 132.363 38.231 135.557C41.3599 138.686 45.0429 141.163 49.2799 142.988C53.5169 144.748 58.1125 145.628 63.0666 145.628C68.0858 145.628 72.6814 144.748 76.8532 142.988C81.0903 141.163 84.7732 138.686 87.9021 135.557C91.031 132.363 93.4429 128.615 95.1377 124.313C96.8977 120.011 97.7777 115.382 97.7777 110.428C97.7777 105.409 96.8977 100.781 95.1377 96.5438C93.4429 92.2416 91.031 88.5261 87.9021 85.3972C84.7732 82.2031 81.0903 79.7261 76.8532 77.9661C72.6814 76.1409 68.0858 75.2283 63.0666 75.2283C58.1125 75.2283 53.5169 76.1409 49.2799 77.9661C45.0429 79.7261 41.3599 82.2031 38.231 85.3972C35.1021 88.5261 32.6577 92.2416 30.8977 96.5438C29.2029 100.781 28.3554 105.409 28.3554 110.428Z" fill="black"/>
<path d="M143.081 110.428C143.081 105.279 144.19 100.683 146.406 96.6416C148.687 92.6001 151.784 89.4061 155.695 87.0594C159.606 84.7127 164.039 83.5394 168.993 83.5394C174.012 83.5394 178.444 84.7127 182.29 87.0594C186.201 89.4061 189.265 92.6001 191.481 96.6416C193.763 100.683 194.904 105.279 194.904 110.428C194.904 115.578 193.763 120.173 191.481 124.215C189.265 128.256 186.201 131.451 182.29 133.797C178.444 136.144 174.012 137.317 168.993 137.317C164.039 137.317 159.606 136.144 155.695 133.797C151.784 131.451 148.687 128.256 146.406 124.215C144.19 120.173 143.081 115.578 143.081 110.428ZM134.281 110.428C134.281 115.382 135.129 120.011 136.824 124.313C138.584 128.615 141.028 132.363 144.157 135.557C147.286 138.686 150.969 141.163 155.206 142.988C159.443 144.748 164.039 145.628 168.993 145.628C174.012 145.628 178.607 144.748 182.779 142.988C187.016 141.163 190.699 138.686 193.828 135.557C196.957 132.363 199.369 128.615 201.064 124.313C202.824 120.011 203.704 115.382 203.704 110.428C203.704 105.409 202.824 100.781 201.064 96.5438C199.369 92.2416 196.957 88.5261 193.828 85.3972C190.699 82.2031 187.016 79.7261 182.779 77.9661C178.607 76.1409 174.012 75.2283 168.993 75.2283C164.039 75.2283 159.443 76.1409 155.206 77.9661C150.969 79.7261 147.286 82.2031 144.157 85.3972C141.028 88.5261 138.584 92.2416 136.824 96.5438C135.129 100.781 134.281 105.409 134.281 110.428Z" fill="black"/>
<path d="M7.82222 35.5556V104H16.1333V35.5556H7.82222ZM12.4178 43.3778H26.4C30.8326 43.3778 34.4178 44.4533 37.1556 46.6044C39.9585 48.6904 41.36 51.8519 41.36 56.0889C41.36 60.2607 39.9585 63.4222 37.1556 65.5733C34.4178 67.7244 30.8326 68.8 26.4 68.8H12.4178V76.6222H26.4C30.8326 76.6222 34.7763 75.8074 38.2311 74.1778C41.7511 72.483 44.5215 70.1037 46.5422 67.04C48.6281 63.9111 49.6711 60.2607 49.6711 56.0889C49.6711 51.8519 48.6281 48.2015 46.5422 45.1378C44.5215 42.0741 41.7511 39.7274 38.2311 38.0978C34.7763 36.403 30.8326 35.5556 26.4 35.5556H12.4178V43.3778Z" fill="black"/>
<path d="M73.0075 35.5556V104H81.3186V35.5556H73.0075Z" fill="black"/>
<path d="M113.748 35.5556V104H122.059V35.5556H113.748ZM118.344 43.3778H132.326C136.758 43.3778 140.344 44.4533 143.081 46.6044C145.884 48.6904 147.286 51.8519 147.286 56.0889C147.286 60.2607 145.884 63.4222 143.081 65.5733C140.344 67.7244 136.758 68.8 132.326 68.8H118.344V76.6222H132.326C136.758 76.6222 140.702 75.8074 144.157 74.1778C147.677 72.483 150.447 70.1037 152.468 67.04C154.554 63.9111 155.597 60.2607 155.597 56.0889C155.597 51.8519 154.554 48.2015 152.468 45.1378C150.447 42.0741 147.677 39.7274 144.157 38.0978C140.702 36.403 136.758 35.5556 132.326 35.5556H118.344V43.3778Z" fill="black"/>
<path d="M171.013 98.2895V89.9784H163.191V98.2895H127.404V104.743H206.996V98.2895H171.013Z" fill="black"/>
</svg>
